# xmcd
#
# Track frame offsets:
#	150
#	11161
#	20650
#	29741
#
# Disc length: 633 seconds
#
# Revision: 1
# Processed by: cddbd v1.4PL0 Copyright (c) Steve Scherf et al.
# Submitted via: audiograbber 1.81.03
#
DISCID=2f027704
DTITLE=Sunskippers, The - The long black vail (Maxi)
DYEAR=1998
DGENRE=
TTITLE0=Ballin' keen
TTITLE1=Jitterbop baby
TTITLE2=The D. J. blues
TTITLE3=The long black vail
EXTD=
EXTT0=
EXTT1=
EXTT2=
EXTT3=
PLAYORDER=
